<svg width="65" height="65" viewBox="0 0 65 65" fill="none" xmlns="http://www.w3.org/2000/svg">
<g id="Apple Logo">
<circle id="Ellipse 3" cx="32.5" cy="32.5" r="32.3" fill="#F3F3F3" stroke="#F3F3F3" stroke-width="0.4"/>
<g id="Group">
<path id="Vector" d="M43.7399 41.379C43.2863 42.4272 42.7493 43.3918 42.1269 44.279C41.2789 45.4882 40.5845 46.3251 40.0493 46.7901C39.2197 47.553 38.3308 47.9436 37.379 47.9659C36.6957 47.9659 35.8717 47.7715 34.9124 47.3771C33.9501 46.9844 33.0656 46.7901 32.257 46.7901C31.4089 46.7901 30.4993 46.9844 29.5263 47.3771C28.5519 47.7715 27.7669 47.977 27.1668 47.9975C26.254 48.0361 25.3442 47.6343 24.4361 46.7901C23.8565 46.2844 23.1315 45.4177 22.263 44.1901C21.3312 42.879 20.5651 41.3587 19.965 39.6254C19.3222 37.7532 19 35.9403 19 34.1852C19 32.1747 19.4344 30.4407 20.3046 28.9876C20.9885 27.8204 21.8982 26.8997 23.0369 26.2238C24.1756 25.5479 25.4059 25.2035 26.7309 25.1814C27.4558 25.1814 28.4065 25.4057 29.588 25.8464C30.7661 26.2886 31.5225 26.5129 31.8542 26.5129C32.1021 26.5129 32.9425 26.2507 34.3671 25.7279C35.7143 25.2431 36.8513 25.0424 37.7827 25.1214C40.3067 25.3251 42.203 26.3201 43.4639 28.1126C41.2067 29.4804 40.09 31.396 40.1123 33.8535C40.1326 35.7677 40.8271 37.3607 42.1919 38.6254C42.8102 39.2125 43.5011 39.6661 44.2695 39.9884C44.103 40.4717 43.9269 40.9346 43.7399 41.379ZM37.9512 18.6002C37.9512 20.1005 37.4031 21.5014 36.3105 22.798C34.9921 24.3394 33.3973 25.2301 31.6679 25.0896C31.6459 24.9096 31.6331 24.7202 31.6331 24.5211C31.6331 23.0808 32.2601 21.5393 33.3736 20.279C33.9295 19.6409 34.6365 19.1103 35.4939 18.687C36.3494 18.2701 37.1587 18.0395 37.9197 18C37.942 18.2006 37.9512 18.4012 37.9512 18.6001V18.6002Z" fill="black"/>
</g>
</g>
</svg>
