<svg width="65" height="65" viewBox="0 0 65 65" fill="none" xmlns="http://www.w3.org/2000/svg">
<g id="Facebook Logo">
<circle id="Ellipse 2" cx="32.5" cy="32.5" r="32.3" fill="#F3F3F3" stroke="#F3F3F3" stroke-width="0.4"/>
<g id="Facbook">
<path id="Vector" d="M32 48C40.2842 48 47 41.2842 47 33C47 24.7157 40.2842 18 32 18C23.7157 18 17 24.7157 17 33C17 41.2842 23.7157 48 32 48Z" fill="#1977F3"/>
<path id="Vector_2" d="M37.8386 37.3369L38.5031 33H34.3434V30.186C34.3434 29.0005 34.9234 27.8425 36.7882 27.8425H38.6803V24.151C38.6803 24.151 36.9632 23.8578 35.3221 23.8578C31.8964 23.8578 29.6563 25.9334 29.6563 29.6945V33H25.8467V37.3369H29.6563V47.8185C30.4199 47.9388 31.2025 47.9999 31.9998 47.9999C32.7972 47.9999 33.5798 47.9367 34.3434 47.8185V37.3369H37.8386Z" fill="white"/>
</g>
</g>
</svg>
