<svg width="65" height="65" viewBox="0 0 65 65" fill="none" xmlns="http://www.w3.org/2000/svg">
<circle cx="32.5" cy="32.5" r="32.3" fill="#F3F3F3" stroke="#F3F3F3" stroke-width="0.4"/>
<g clip-path="url(#clip0_10_81)">
<path d="M46.9842 33.2807C46.9842 32.0516 46.8821 31.1547 46.6613 30.2246H32.2988V35.7721H40.7292C40.5593 37.1507 39.6415 39.2269 37.6018 40.622L37.5732 40.8077L42.1144 44.2455L42.429 44.2762C45.3184 41.6685 46.9842 37.8317 46.9842 33.2807Z" fill="#4285F4"/>
<path d="M32.2989 47.897C36.4291 47.897 39.8964 46.5682 42.429 44.2762L37.6019 40.622C36.3101 41.5023 34.5764 42.1169 32.2989 42.1169C28.2536 42.1169 24.8203 39.5093 23.5964 35.905L23.417 35.9199L18.6951 39.491L18.6333 39.6587C21.1488 44.5418 26.3159 47.897 32.2989 47.897Z" fill="#34A853"/>
<path d="M23.5962 35.905C23.2733 34.9749 23.0864 33.9782 23.0864 32.9485C23.0864 31.9187 23.2733 30.9221 23.5792 29.992L23.5707 29.7939L18.7896 26.1655L18.6331 26.2382C17.5964 28.2646 17.0015 30.5401 17.0015 32.9485C17.0015 35.3569 17.5964 37.6323 18.6331 39.6587L23.5962 35.905Z" fill="#FBBC05"/>
<path d="M32.2989 23.78C35.1713 23.78 37.1089 24.9925 38.2138 26.0058L42.531 21.8866C39.8796 19.4782 36.4291 18 32.2989 18C26.3159 18 21.1488 21.3551 18.6333 26.2382L23.5794 29.992C24.8203 26.3877 28.2536 23.78 32.2989 23.78Z" fill="#EB4335"/>
</g>
<defs>
<clipPath id="clip0_10_81">
<rect width="30" height="30" fill="white" transform="translate(17 18)"/>
</clipPath>
</defs>
</svg>
