<svg width="193" height="44" viewBox="0 0 193 44" fill="none" xmlns="http://www.w3.org/2000/svg">
<path d="M0 20.0544C0.0810816 20.1949 0.123768 20.3542 0.123768 20.5163C0.123768 20.6785 0.0810816 20.8378 0 20.9783L0 20.0544Z" fill="#171717"/>
<path d="M0 21.6925C0.0790753 21.7956 0.121936 21.9219 0.121936 22.0518C0.121936 22.1817 0.0790753 22.308 0 22.411L0 21.6925Z" fill="#232323"/>
<path d="M0 19.1349C0.17963 19.2717 0.141138 19.4086 0 19.5626V19.1349Z" fill="#7D7D7D"/>
<path d="M0 22.9199C0.145415 23.0226 0.175353 23.1252 0 23.2279V22.9199Z" fill="#888888"/>
<path d="M104.327 27.9111C104.327 23.6128 104.374 19.3145 104.211 15.0162C104.211 14.5885 103.963 14.0539 104.211 13.7888C104.459 13.5236 105.02 13.6989 105.443 13.6861C107.218 13.6262 108.997 13.5792 110.772 13.5279C111.042 13.5221 111.305 13.6121 111.515 13.7821C111.725 13.952 111.868 14.1907 111.918 14.456C112.017 14.9906 112.141 15.5209 112.205 16.0641C112.26 16.4918 112.346 16.5645 112.714 16.2694C114.049 15.1768 115.562 14.3231 117.187 13.746C118.972 13.0858 120.888 12.8571 122.777 13.0788C123.699 13.1717 124.582 13.4997 125.34 14.0314C126.099 14.5631 126.708 15.2807 127.11 16.1154C127.32 16.5431 127.448 16.5944 127.846 16.2993C129.979 14.6536 132.49 13.5684 135.151 13.1429C136.516 12.8895 137.919 12.9259 139.269 13.2499C141.882 13.9684 143.208 15.8417 143.816 18.3437C144.06 19.4078 144.17 20.4983 144.145 21.5898C144.082 28.3103 144.025 35.0307 143.974 41.7512C143.974 42.0762 143.897 42.1789 143.546 42.1789C141.018 42.1789 138.487 42.1789 135.959 42.1789C135.565 42.1789 135.458 42.0933 135.463 41.6827C135.551 35.7122 135.631 29.743 135.702 23.7753C135.712 23.1441 135.684 22.5127 135.617 21.8849C135.394 19.7978 134.261 18.9253 132.195 19.2675C130.816 19.535 129.523 20.1339 128.427 21.0125C128.183 21.1964 128.222 21.4401 128.222 21.6497C128.222 28.2832 128.222 34.9081 128.222 41.5544C128.222 42.0677 128.106 42.1874 127.593 42.1831C125.215 42.1489 122.842 42.1575 120.464 42.1831C120.036 42.1831 119.925 42.0933 119.929 41.6571C119.983 35.5896 120.027 29.5192 120.062 23.446C120.076 22.7974 120.03 22.1488 119.925 21.5086C119.583 19.6139 118.642 18.9424 116.738 19.276C115.342 19.5495 114.038 20.1702 112.945 21.0809C112.867 21.1442 112.806 21.2268 112.769 21.3205C112.733 21.4142 112.721 21.5159 112.735 21.6155C112.761 27.683 112.785 33.7548 112.808 39.8308C112.808 40.4938 112.808 41.161 112.808 41.8239C112.808 42.0805 112.765 42.1789 112.479 42.1789C109.865 42.1789 107.248 42.1789 104.63 42.1789C104.228 42.1789 104.301 41.9607 104.301 41.7512L104.327 27.9111Z" fill="black"/>
<path d="M41.443 27.9068C41.443 23.6769 41.4986 19.4471 41.3318 15.2215C41.3318 14.828 41.3062 14.4345 41.2634 14.0453C41.2292 13.7716 41.3275 13.7032 41.5927 13.6989C43.7312 13.6476 45.8696 13.5834 48.0081 13.5278C48.2417 13.5484 48.4639 13.6378 48.6466 13.7848C48.8293 13.9317 48.9643 14.1296 49.0345 14.3533C49.1457 14.9221 49.2655 15.4867 49.3382 16.064C49.3895 16.4917 49.4751 16.5559 49.8514 16.2864C51.9368 14.8016 54.3102 13.7701 56.8185 13.2584C58.5035 12.8419 60.2709 12.8996 61.9252 13.4252C64.2048 14.2292 65.3809 15.9913 65.9497 18.211C66.2169 19.3312 66.3363 20.4814 66.3047 21.6326C66.2534 28.3131 66.2021 34.9964 66.1508 41.6827C66.1508 42.1103 66.0395 42.213 65.6204 42.2087C63.1398 42.1859 60.662 42.1859 58.1871 42.2087C57.7594 42.2087 57.6226 42.1317 57.6311 41.6656C57.7195 35.6779 57.7965 29.6902 57.8621 23.7026C57.9056 22.8162 57.8352 21.9279 57.6525 21.0595C57.3531 19.8576 56.6817 19.3145 55.4456 19.2503C53.7691 19.1605 52.3363 19.8534 50.9035 20.5976C50.5511 20.7405 50.2563 20.9968 50.0657 21.3259C49.8752 21.6551 49.7998 22.0384 49.8514 22.4152C49.9241 28.8306 49.9199 35.2716 49.9541 41.6998C49.9541 42.1018 49.86 42.2044 49.458 42.2002C46.946 42.1774 44.434 42.1774 41.922 42.2002C41.4943 42.2002 41.4345 42.0719 41.4345 41.6912C41.4487 37.0893 41.4516 32.4945 41.443 27.9068Z" fill="black"/>
<path d="M160.025 21.0509C160.025 26.6964 160.025 32.3405 160.025 37.9832C160.017 39.246 160.08 40.5082 160.213 41.764C160.243 42.0548 160.213 42.1917 159.866 42.1917C157.283 42.1745 154.701 42.1745 152.121 42.1917C151.822 42.1917 151.727 42.1232 151.693 41.8025C151.531 39.7624 151.501 37.718 151.501 35.6694C151.501 25.0284 151.491 14.3889 151.471 3.75084C151.471 2.69445 151.402 1.63805 151.334 0.581659C151.334 0.295106 151.394 0.23523 151.659 0.230953C154.148 0.145415 156.625 0.0641536 159.101 0C159.231 0.00631642 159.358 0.0389593 159.475 0.0959437C159.591 0.152928 159.695 0.233063 159.78 0.331477C159.865 0.42989 159.929 0.544525 159.968 0.668411C160.007 0.792297 160.02 0.922846 160.008 1.05212V21.0509H160.025Z" fill="black"/>
<path d="M175.926 16.3806C178.1 14.7739 180.611 13.6854 183.27 13.1985C184.662 12.8941 186.104 12.9043 187.491 13.2285C190.109 13.8957 191.503 15.7134 192.132 18.2282C192.394 19.349 192.51 20.499 192.478 21.6497C192.427 28.3017 192.377 34.9523 192.328 41.6015C192.328 42.0292 192.251 42.2045 191.755 42.2002C189.277 42.1689 186.8 42.1689 184.322 42.2002C183.873 42.2002 183.804 42.0676 183.809 41.6613C183.894 35.6737 183.97 29.686 184.035 23.6983C184.079 22.8296 184.013 21.9587 183.839 21.1065C183.526 19.8235 182.864 19.2974 181.572 19.2375C180.406 19.2172 179.254 19.483 178.215 20.0116C177.492 20.3558 176.796 20.7532 176.132 21.2006C175.948 21.403 175.724 21.5634 175.473 21.6711C173.192 22.9142 170.911 24.1645 168.63 25.4219C168.356 25.5716 168.104 25.8154 167.745 25.7384V20.2597C167.873 20.1001 168.043 19.9799 168.236 19.9133C170.375 18.9039 172.552 17.8989 174.72 16.9194C175.112 16.7183 175.515 16.5384 175.926 16.3806Z" fill="#E20047"/>
<path d="M167.736 25.7213L174.729 21.9105C175.191 21.6625 175.661 21.4273 176.132 21.1835C176.16 28.0066 176.194 34.8297 176.234 41.6528C176.234 42.0804 176.127 42.1788 175.708 42.1745C173.176 42.1745 170.644 42.1745 168.117 42.1745C167.817 42.1745 167.71 42.1275 167.71 41.7939C167.71 36.4905 167.71 31.1857 167.71 25.8795C167.723 25.8239 167.732 25.7726 167.736 25.7213Z" fill="black"/>
<path d="M175.927 16.3805C175.598 16.6753 175.21 16.8969 174.789 17.0306C173.215 17.7662 171.633 18.4762 170.059 19.199L167.741 20.2597C167.678 18.1497 167.611 16.0398 167.54 13.9298C167.54 13.6946 167.578 13.6005 167.835 13.5962C170.003 13.5449 172.167 13.4765 174.336 13.4252C174.567 13.4597 174.784 13.5622 174.957 13.7198C175.131 13.8774 175.254 14.083 175.311 14.3105C175.419 14.8807 175.522 15.451 175.619 16.0213C175.653 16.1966 175.64 16.4105 175.927 16.3805Z" fill="#BB1437"/>
<path d="M34.9509 17.1803C34.5846 13.6615 33.4012 10.2769 31.4952 7.29642C29.7203 4.55493 27.4193 2.45497 24.3143 1.30876C20.8287 0.0879688 17.0773 -0.164784 13.4594 0.577412C9.81317 1.1815 6.5546 3.20522 4.39667 6.20581C2.18113 9.28977 0.771253 12.8784 0.295107 16.6457C0.201015 17.3044 0.256615 17.9887 0 18.6217V19.1349C0.043406 19.1978 0.0666537 19.2723 0.0666537 19.3487C0.0666537 19.4251 0.043406 19.4997 0 19.5626L0 20.0715C0.0813399 20.3741 0.0813399 20.6928 0 20.9953L0 21.7096C0.0812808 21.9363 0.0812808 22.1843 0 22.411L0 22.9199C0.0370166 22.9627 0.0573909 23.0174 0.0573909 23.0739C0.0573909 23.1305 0.0370166 23.1851 0 23.2279L0 23.6556C0.17963 23.7283 0.098369 23.8908 0.106923 24.0106C0.338424 27.2617 1.14047 30.4467 2.47633 33.4197C4.27691 37.2347 6.97137 40.2029 10.9917 41.811C13.7315 42.8574 16.6842 43.2243 19.5968 42.8802C22.6096 42.649 25.4877 41.5364 27.8726 39.6811C30.9135 37.2732 32.7312 34.0655 33.8603 30.4302C35.1476 26.1386 35.5191 21.6246 34.9509 17.1803ZM24.6222 31.1188C22.287 36.7343 15.5851 37.0166 12.403 33.8774C11.1857 32.6046 10.3154 31.0407 9.87539 29.3353C8.83309 25.7268 8.50047 21.9505 8.89598 18.2154C9.03571 16.087 9.56939 14.003 10.4699 12.0694C11.753 9.4477 13.7888 7.81821 16.7783 7.59153C20.0031 7.35202 22.5308 8.58805 24.3143 11.2953C25.4049 12.9548 25.8668 14.8366 26.1576 16.7655C26.3428 18.0778 26.4428 19.4007 26.457 20.7259C26.4399 24.605 25.948 27.9325 24.6222 31.1188Z" fill="black"/>
<path d="M97.2485 19.9047C96.7166 18.3186 95.791 16.8933 94.5583 15.7624C93.3256 14.6314 91.8261 13.8316 90.2001 13.438C87.8284 12.8071 85.3485 12.6947 82.9294 13.1087C78.815 13.7588 75.7656 15.8758 74.0121 19.7122C73.1657 21.6334 72.6772 23.693 72.5707 25.7897C72.3483 28.9803 72.5707 32.1238 73.764 35.139C75.1797 38.7573 77.579 41.379 81.4624 42.3712C87.0224 43.7997 92.082 42.8246 96.5257 39.0951C96.6263 39.0209 96.7094 38.9256 96.7692 38.8158C96.829 38.706 96.864 38.5845 96.8717 38.4597C96.8795 38.335 96.8598 38.21 96.814 38.0937C96.7683 37.9774 96.6976 37.8725 96.607 37.7864C95.666 36.73 94.7166 35.6779 93.7928 34.6044C93.5404 34.3136 93.4078 34.2537 93.1084 34.5659C92.1827 35.5774 91.0471 36.3744 89.781 36.9011C86.7273 38.1285 82.7369 37.4186 81.394 33.0134C81.1722 32.2094 81.029 31.3858 80.9663 30.5542C80.9193 30.1265 81.0176 30.0067 81.4667 30.011C84.097 30.0366 86.7316 30.011 89.3619 30.011V30.135H96.8465C97.8473 30.135 97.8857 30.135 98.0825 29.1385C98.6597 26.0425 98.3711 22.8472 97.2485 19.9047ZM89.9093 25.6186H85.6068V25.7897C84.2082 25.7897 82.8054 25.7897 81.4068 25.7897C81.1074 25.7897 80.9791 25.7469 81.0176 25.4048C81.042 23.9314 81.3589 22.4776 81.95 21.1279C82.394 20.1536 83.1933 19.3856 84.1846 18.981C85.1759 18.5763 86.2843 18.5656 87.2833 18.9509C87.8445 19.1601 88.3504 19.4952 88.7618 19.9304C89.1733 20.3656 89.4796 20.8894 89.657 21.4615C90.0702 22.6894 90.2796 23.9766 90.2771 25.2722C90.2857 25.6229 90.1232 25.6186 89.9093 25.6186Z" fill="black"/>
</svg>
